<?xml version="1.0" standalone="no"?>
<!DOCTYPE svg PUBLIC "-//W3C//DTD SVG 20010904//EN"
 "http://www.w3.org/TR/2001/REC-SVG-20010904/DTD/svg10.dtd">
<svg version="1.0" xmlns="http://www.w3.org/2000/svg"
 width="512.000000pt" height="512.000000pt" viewBox="0 0 512.000000 512.000000"
 preserveAspectRatio="xMidYMid meet">
<metadata>
Created by potrace 1.11, written by Peter Selinger 2001-2013
</metadata>
<g transform="translate(0.000000,512.000000) scale(0.100000,-0.100000)"
fill="#000000" stroke="none">
<path d="M2505 5061 c-19 -18 -32 -38 -28 -44 3 -5 1 -7 -4 -4 -6 4 -25 -21
-44 -58 -18 -35 -36 -62 -41 -59 -7 5 -10 -3 -7 -22 0 -3 -11 -16 -25 -29 -14
-13 -26 -29 -26 -34 0 -5 -10 -17 -22 -25 -12 -9 -18 -16 -13 -16 5 0 -1 -7
-13 -16 -12 -8 -22 -22 -22 -30 0 -8 -7 -14 -15 -14 -8 0 -14 -3 -13 -7 2 -10
-20 -63 -26 -63 -3 0 -3 8 0 18 5 14 4 14 -4 2 -6 -8 -10 -19 -10 -23 -1 -5
-9 -16 -20 -25 -10 -9 -21 -25 -25 -35 -4 -10 -12 -15 -17 -12 -6 4 -9 1 -8
-7 2 -7 -4 -12 -12 -10 -8 2 -12 0 -8 -4 4 -4 3 -13 -3 -21 -6 -7 -8 -13 -5
-13 4 0 -4 -10 -17 -22 -13 -13 -32 -38 -42 -55 -11 -18 -23 -33 -27 -33 -5 0
-13 -11 -18 -25 -5 -14 -14 -25 -20 -25 -5 0 -10 -6 -10 -14 0 -7 -10 -21 -22
-30 -13 -9 -17 -14 -10 -11 6 3 12 1 12 -4 0 -6 -7 -11 -16 -11 -8 0 -13 -4
-9 -9 3 -5 -2 -17 -11 -25 -8 -9 -12 -16 -8 -16 4 0 0 -8 -9 -18 -10 -10 -14
-22 -10 -25 3 -4 2 -7 -4 -7 -6 0 -14 -11 -17 -25 -4 -14 -13 -28 -20 -31 -8
-3 -12 -14 -8 -26 3 -14 1 -19 -6 -14 -7 4 -13 1 -14 -6 0 -7 -2 -17 -2 -23
-1 -5 -5 -16 -9 -22 -5 -7 -5 -18 -1 -25 5 -8 2 -9 -10 -5 -9 4 -14 3 -11 -2
6 -11 -16 -101 -24 -96 -4 2 -7 -9 -8 -23 -1 -15 -4 -45 -8 -67 -11 -70 -6
-246 8 -238 4 2 7 -3 7 -11 0 -19 32 -89 45 -98 6 -5 5 -8 -3 -8 -8 0 -3 -11
12 -27 14 -15 23 -30 20 -35 -3 -4 0 -8 6 -8 6 0 14 -8 17 -17 4 -10 24 -38
45 -62 21 -24 35 -48 31 -54 -3 -5 -2 -7 4 -4 5 3 18 -4 28 -16 53 -63 84 -95
89 -89 3 3 6 -3 6 -13 0 -10 3 -15 7 -12 3 4 20 -8 37 -26 17 -17 33 -32 36
-32 12 -1 165 -158 162 -167 -1 -5 2 -7 7 -4 5 3 12 -1 15 -10 3 -8 10 -13 14
-10 5 3 16 -4 25 -14 15 -18 15 -20 -4 -31 -17 -8 -35 -7 -83 6 -76 22 -93 25
-181 30 -38 2 -70 5 -70 5 0 2 -48 9 -78 11 -15 1 -30 5 -32 9 -3 4 -16 6 -30
5 -14 -2 -25 0 -25 4 0 4 -22 14 -50 21 -27 7 -50 18 -50 22 0 5 -4 7 -9 3 -5
-3 -16 2 -25 10 -8 9 -28 21 -44 28 -28 12 -32 16 -32 37 0 6 -9 10 -20 10
-11 0 -20 5 -20 10 0 6 -6 10 -14 10 -8 0 -18 9 -21 20 -3 11 -12 20 -18 20
-15 0 -77 64 -77 79 0 6 -7 11 -15 11 -8 0 -14 6 -13 13 2 6 -2 11 -9 10 -6
-2 -15 6 -18 17 -4 11 -11 20 -16 20 -5 0 -9 6 -9 13 0 7 -9 19 -20 27 -11 8
-20 18 -20 22 0 4 -13 21 -30 36 -16 16 -30 33 -30 38 0 5 -18 26 -40 47 -22
20 -40 41 -40 46 0 4 -11 17 -25 27 -14 10 -25 24 -25 31 0 7 -12 20 -26 30
-14 9 -30 27 -34 39 -6 14 -16 21 -27 20 -19 -3 -48 20 -48 38 -1 6 -6 10 -13
9 -17 -4 -132 58 -126 68 2 4 -5 6 -16 4 -11 -2 -35 2 -53 9 -50 21 -143 14
-169 -11 -15 -15 -18 -27 -13 -40 5 -10 9 -20 9 -23 5 -28 31 -90 38 -90 4 0
8 -13 8 -28 0 -16 3 -32 7 -36 7 -6 11 -21 16 -61 2 -12 7 -27 11 -34 5 -7 10
-142 11 -300 1 -157 5 -299 8 -316 4 -16 8 -39 10 -50 3 -11 8 -39 12 -62 4
-24 10 -43 15 -43 4 0 7 -10 6 -22 -2 -21 7 -59 21 -98 4 -8 7 -19 7 -25 4
-28 19 -81 27 -90 7 -10 15 -37 26 -99 3 -16 14 -37 25 -48 10 -10 16 -23 13
-28 -4 -6 -2 -10 4 -10 6 0 13 -11 17 -25 3 -14 11 -25 16 -25 6 0 8 -6 5 -14
-3 -7 1 -26 9 -41 8 -15 14 -34 14 -42 0 -8 5 -11 10 -8 6 4 17 -10 26 -30 8
-20 21 -38 29 -42 8 -3 15 -11 15 -17 0 -7 8 -21 19 -32 31 -34 35 -61 9 -68
-13 -3 -25 -1 -26 5 -3 6 -8 6 -16 -1 -10 -7 -21 -3 -42 15 -16 14 -35 25 -41
25 -7 0 -13 5 -13 11 0 5 -4 7 -10 4 -5 -3 -19 3 -31 14 -11 10 -33 22 -47 26
-15 4 -35 14 -44 22 -10 9 -18 12 -18 7 0 -5 -4 -4 -8 2 -8 12 -83 59 -95 59
-4 0 -11 5 -15 11 -4 5 -21 16 -39 23 -18 7 -38 20 -44 28 -7 8 -27 20 -46 28
-18 8 -33 19 -33 25 0 6 -4 8 -10 5 -5 -3 -10 -1 -10 5 0 7 -6 10 -14 7 -7 -3
-20 2 -29 11 -28 30 -48 44 -54 38 -3 -3 -11 -2 -17 3 -62 50 -146 62 -172 26
-8 -10 -14 -15 -14 -9 0 5 -7 -4 -16 -21 -39 -72 -74 -141 -74 -147 0 -4 -5
-19 -12 -35 -13 -32 -15 -39 -22 -71 -3 -13 -8 -33 -12 -44 -3 -11 -7 -30 -9
-41 -1 -12 -6 -42 -10 -67 -5 -25 -8 -66 -9 -92 -1 -26 -7 -53 -13 -60 -15
-14 -17 -114 -3 -123 6 -3 10 -23 10 -44 0 -21 3 -41 7 -44 3 -4 6 -35 6 -69
0 -35 4 -69 10 -77 12 -15 18 -35 21 -68 0 -13 5 -23 10 -23 4 0 6 -9 3 -20
-3 -11 -1 -23 4 -26 5 -3 9 -16 9 -29 0 -13 6 -30 13 -37 18 -18 45 -89 42
-110 -2 -9 8 -24 21 -33 13 -8 24 -23 24 -33 0 -9 9 -30 19 -46 11 -17 18 -33
16 -36 -3 -4 7 -18 20 -30 14 -13 25 -29 25 -37 0 -7 4 -13 9 -13 4 0 20 -26
34 -57 14 -32 29 -57 32 -55 6 3 36 -24 35 -33 -1 -18 2 -23 25 -35 13 -7 27
-21 31 -32 3 -10 12 -18 19 -18 8 0 17 -11 21 -25 3 -14 9 -23 13 -21 4 3 20
-4 37 -15 16 -10 26 -19 22 -19 -11 0 33 -43 68 -68 17 -12 33 -19 36 -16 3 2
11 -2 18 -11 7 -8 17 -15 23 -15 14 0 36 -32 37 -52 0 -10 5 -18 12 -18 6 0 9
-3 5 -6 -7 -7 33 -65 68 -100 68 -68 220 -138 325 -150 118 -14 234 -19 249
-10 5 4 12 2 16 -4 4 -6 11 -7 17 -4 5 3 29 8 51 10 109 9 254 34 352 60 11 3
31 8 45 11 48 13 265 7 265 -7 0 -1 16 -3 35 -6 106 -12 91 -8 195 -52 33 -14
82 -26 110 -27 27 -1 51 -7 53 -14 5 -16 102 -15 102 2 0 6 18 23 40 37 22 13
40 32 40 41 0 10 8 20 18 23 9 3 121 5 247 5 224 0 379 9 585 34 19 3 35 6 35
7 0 2 34 10 65 15 14 2 36 6 50 10 22 5 85 18 147 31 12 2 35 9 50 16 16 6 31
12 36 13 4 2 9 4 12 5 5 3 6 3 50 15 17 4 35 10 40 14 6 3 21 7 35 7 14 1 31
2 38 3 6 1 12 7 12 15 0 9 15 17 40 21 22 4 40 11 40 16 0 6 4 8 9 4 5 -3 12
-1 16 5 6 10 86 49 95 47 6 -2 83 44 90 54 3 3 15 10 28 13 13 4 40 25 62 46
21 21 41 35 44 32 3 -3 6 0 6 6 0 7 6 12 13 12 7 0 20 8 28 18 9 9 45 45 80
79 35 34 69 68 74 75 18 22 106 131 131 162 13 17 30 42 36 57 7 15 21 30 32
33 11 3 17 8 13 12 -4 4 -2 13 4 21 6 7 8 13 5 13 -9 0 66 144 76 148 5 2 6 7
3 12 -3 4 2 29 10 56 8 26 12 51 10 55 -3 4 2 12 10 19 8 7 15 28 15 46 0 19
5 34 10 34 6 0 10 72 10 196 0 160 -3 198 -15 210 -8 9 -15 26 -15 40 0 13 -4
24 -8 24 -4 0 -8 8 -8 18 -1 37 -23 137 -37 172 -13 31 -40 136 -41 156 -1 12
-9 29 -19 38 -9 10 -15 21 -12 26 5 8 -20 22 -45 24 -25 3 -109 -46 -115 -65
-4 -11 -12 -19 -20 -19 -8 0 -16 -8 -20 -19 -3 -10 -24 -36 -46 -57 -22 -22
-48 -48 -57 -58 -9 -11 -29 -32 -44 -48 -14 -15 -23 -28 -20 -28 4 0 -7 -7
-24 -16 -17 -8 -36 -26 -43 -40 -6 -14 -15 -23 -19 -20 -5 3 -15 -4 -22 -15
-8 -10 -22 -19 -32 -19 -10 0 -18 -3 -18 -7 0 -10 -93 -74 -112 -76 -7 -2 -27
-12 -43 -23 -26 -18 -115 -58 -122 -55 -3 1 -5 1 -20 -3 -67 -18 -101 -28
-113 -35 -8 -4 -23 -7 -34 -5 -10 1 -30 -2 -45 -7 -14 -6 -37 -12 -51 -14 -14
-2 -61 -11 -104 -20 -44 -8 -83 -12 -87 -8 -16 16 2 50 24 49 14 -1 24 6 27
19 4 13 16 21 33 23 15 2 27 8 27 13 0 6 4 7 10 4 5 -3 20 3 32 14 64 58 83
71 94 67 7 -3 15 3 18 12 3 10 28 31 55 48 27 16 64 48 83 69 19 22 40 41 48
43 8 2 17 9 19 15 2 7 29 36 60 65 31 30 55 57 54 62 -1 4 21 34 50 65 29 32
53 62 53 66 1 5 2 14 3 20 0 5 6 7 11 4 6 -3 10 3 10 15 0 11 4 28 10 38 5 9
15 37 21 62 7 25 14 50 15 55 2 6 5 21 8 34 3 12 9 28 14 35 12 16 9 315 -4
324 -5 4 -11 25 -12 47 -8 173 -12 214 -21 238 -14 35 -14 334 -1 373 5 16 11
44 14 62 2 18 10 40 16 48 7 7 9 14 5 14 -4 0 -3 6 3 13 8 10 8 30 0 95 -1 6
-10 12 -20 12 -10 0 -18 4 -18 9 0 12 -40 5 -54 -9 -5 -5 -22 -10 -37 -10 -15
0 -40 -5 -56 -12 -15 -6 -30 -12 -33 -13 -55 -20 -70 -30 -75 -45 -3 -11 -12
-17 -20 -14 -18 7 -67 -19 -90 -50 -10 -13 -22 -23 -25 -21 -4 2 -13 -6 -20
-20 -7 -13 -23 -26 -36 -29 -13 -4 -30 -19 -38 -34 -8 -15 -26 -34 -41 -42
-15 -8 -36 -33 -47 -56 -10 -23 -28 -44 -39 -47 -11 -3 -19 -9 -18 -14 4 -21
-2 -31 -21 -36 -11 -3 -24 -16 -29 -30 -6 -14 -19 -31 -30 -37 -12 -6 -20 -14
-20 -18 3 -20 -2 -32 -15 -32 -8 0 -23 -16 -35 -35 -11 -19 -24 -35 -29 -35
-5 0 -15 -11 -22 -25 -7 -14 -19 -25 -25 -25 -7 0 -20 -9 -30 -20 -10 -11 -14
-20 -9 -20 5 0 -4 -9 -21 -20 -16 -11 -38 -20 -47 -20 -10 0 -18 -5 -18 -12 0
-6 -3 -8 -7 -5 -3 4 -25 -8 -47 -27 -26 -21 -49 -32 -63 -30 -12 2 -25 -1 -28
-6 -4 -6 -11 -8 -16 -5 -5 4 -9 2 -9 -3 0 -10 -105 -30 -170 -32 -24 0 -48 -6
-51 -12 -4 -6 -36 -13 -71 -14 -65 -4 -92 -7 -118 -17 -8 -3 -36 -12 -62 -20
l-48 -14 0 28 c0 16 5 29 10 29 6 0 10 5 10 11 0 12 4 16 89 109 28 30 51 59
51 63 0 5 4 6 9 3 5 -3 12 1 15 10 4 9 9 15 12 12 3 -3 22 11 42 31 20 20 49
42 65 48 15 7 27 18 27 24 0 7 27 43 60 80 33 37 60 71 60 76 0 5 18 27 40 48
22 21 40 44 40 51 0 6 7 17 15 24 9 7 14 19 11 26 -3 7 -1 16 5 20 6 3 8 12 5
20 -3 8 -2 14 2 14 12 0 30 52 35 99 3 24 9 46 13 50 11 8 10 110 -1 176 -5
28 -10 55 -11 60 -9 62 -18 95 -25 95 -5 0 -9 8 -9 19 0 10 -7 31 -14 47 -8
15 -13 31 -10 36 3 4 1 8 -5 8 -11 0 -51 80 -51 103 0 9 -4 17 -8 17 -9 0 -72
86 -72 99 0 5 -7 11 -15 15 -8 3 -15 12 -15 20 0 8 -12 28 -26 43 -15 15 -35
48 -45 72 -11 24 -22 41 -25 38 -8 -8 -44 25 -38 35 3 4 1 8 -5 8 -5 0 -15 16
-22 35 -7 19 -17 35 -22 35 -12 0 -77 70 -77 83 0 6 -7 17 -15 26 -74 78 -102
114 -111 144 -4 9 -11 17 -17 17 -6 0 -7 3 -4 7 4 3 -2 13 -14 21 -11 8 -18
20 -15 28 3 8 -1 14 -8 14 -8 0 -24 20 -36 44 -28 59 -40 67 -94 64 -37 -2
-54 -10 -81 -37z m69 -172 c-3 -5 0 -9 5 -9 6 0 11 -5 11 -11 0 -7 16 -25 36
-42 19 -17 42 -44 51 -60 8 -16 35 -50 59 -76 24 -25 47 -54 50 -63 3 -10 9
-18 14 -18 5 0 12 -9 15 -20 3 -11 13 -20 21 -20 8 0 14 -4 14 -8 0 -5 14 -24
30 -42 17 -18 30 -38 30 -44 0 -6 18 -29 40 -51 21 -22 39 -48 40 -57 0 -10 9
-22 20 -28 12 -6 20 -21 20 -36 0 -17 7 -28 20 -31 11 -3 21 -9 21 -14 1 -5 2
-15 3 -21 1 -7 6 -12 12 -11 6 1 23 -28 39 -65 16 -37 33 -70 39 -74 5 -3 11
-15 12 -25 2 -10 12 -49 24 -88 11 -38 23 -95 26 -125 9 -96 9 -240 0 -240 -4
0 -6 -7 -2 -15 3 -8 -1 -21 -9 -29 -8 -8 -15 -21 -15 -29 0 -9 -10 -14 -24
-14 -21 0 -23 3 -17 26 8 30 6 103 -4 181 -11 87 -12 92 -30 140 -9 25 -17 51
-17 58 -1 6 -5 12 -10 12 -4 0 -8 7 -8 15 0 39 -132 202 -211 260 -29 22 -126
63 -169 72 -33 8 -169 8 -200 0 -152 -36 -283 -107 -368 -201 -49 -55 -108
-171 -130 -258 -15 -59 -19 -104 -17 -195 1 -65 5 -128 8 -139 3 -12 10 -38
15 -58 14 -50 -1 -45 -34 12 -75 125 -101 221 -98 352 3 94 6 121 17 150 2 8
13 38 22 65 25 71 89 197 142 277 59 90 238 331 268 362 6 6 53 67 105 136 51
69 98 128 104 132 12 9 38 -20 30 -33z m89 -709 c57 -21 131 -71 174 -117 73
-77 153 -237 157 -313 1 -8 4 -20 8 -26 8 -12 4 -190 -5 -241 -16 -90 -103
-301 -147 -356 -5 -7 -30 -39 -56 -72 -26 -33 -54 -67 -63 -77 -9 -9 -38 -39
-65 -67 -32 -33 -60 -53 -82 -57 -36 -7 -60 12 -139 111 -22 28 -43 52 -47 53
-5 2 -8 10 -8 18 0 8 -4 14 -8 14 -9 0 -120 184 -141 235 -39 92 -79 219 -88
285 -11 76 -5 228 12 286 19 67 74 184 87 184 4 0 8 6 8 13 0 14 42 56 95 95
81 60 200 72 308 32z m-1716 -656 c-3 -3 8 -18 25 -32 75 -65 188 -190 188
-207 0 -15 34 -55 46 -55 5 0 19 -15 31 -33 12 -18 38 -48 57 -67 20 -19 36
-40 36 -45 0 -6 9 -17 20 -25 11 -8 20 -20 20 -27 0 -7 5 -13 11 -13 6 0 25
-15 42 -34 36 -38 156 -121 190 -132 12 -3 32 -16 45 -27 12 -11 22 -18 22
-15 0 5 28 0 95 -18 11 -3 34 -7 50 -10 17 -3 37 -8 45 -11 15 -6 35 -8 150
-17 30 -3 55 -5 55 -6 0 -1 14 -3 30 -5 64 -6 155 -33 155 -46 0 -4 8 -6 17
-5 9 2 25 -6 35 -16 10 -10 23 -16 28 -13 6 4 10 0 10 -7 0 -14 -36 -43 -241
-196 -144 -107 -202 -161 -262 -243 -26 -35 -51 -69 -55 -74 -5 -6 -7 -16 -4
-23 2 -6 -1 -12 -6 -12 -12 0 -68 -152 -76 -207 -4 -21 -9 -50 -12 -63 -3 -14
-7 -59 -9 -100 -2 -41 -4 -77 -5 -80 -2 -3 -2 -9 -1 -14 1 -5 0 -15 -3 -22 -4
-11 -13 -9 -43 8 -21 12 -51 28 -66 36 -16 8 -31 20 -34 28 -3 8 -14 14 -24
14 -10 0 -19 6 -19 13 0 6 -15 22 -33 34 -31 21 -107 90 -107 96 0 2 -20 26
-45 53 -25 27 -45 54 -45 61 0 6 -10 20 -22 30 -24 20 -36 38 -77 118 -14 28
-31 54 -38 58 -7 4 -13 14 -13 22 0 7 -6 20 -13 27 -7 7 -28 51 -46 98 -18 47
-40 97 -48 112 -7 15 -13 31 -13 35 1 7 -24 93 -48 163 -3 8 -5 18 -4 22 1 4
-6 47 -16 96 -11 49 -18 96 -16 105 1 9 -1 17 -4 17 -12 0 -17 175 -11 385 1
61 0 128 -4 150 -10 60 -17 99 -22 113 -3 8 9 12 42 12 25 0 44 -3 40 -6z
m3312 -21 c5 -10 7 -34 5 -53 -10 -86 0 -314 16 -376 4 -17 3 -38 -2 -47 -6
-11 -5 -17 1 -17 9 0 14 -16 27 -90 3 -19 7 -90 9 -156 1 -67 6 -127 9 -133 4
-6 4 -11 -1 -11 -4 0 -9 -25 -10 -56 -1 -32 -10 -71 -21 -93 -11 -21 -22 -54
-25 -75 -3 -21 -16 -48 -31 -63 -14 -14 -23 -29 -20 -34 3 -5 1 -9 -5 -9 -5 0
-12 -8 -15 -18 -4 -10 -22 -36 -41 -58 -19 -21 -35 -43 -35 -48 0 -4 -17 -25
-37 -46 -21 -21 -44 -46 -51 -55 -7 -8 -17 -13 -22 -10 -5 3 -18 -8 -30 -25
-12 -17 -37 -37 -56 -45 -19 -8 -37 -21 -40 -30 -3 -8 -12 -15 -19 -15 -6 0
-24 -11 -39 -25 -15 -14 -33 -25 -39 -25 -7 0 -29 -16 -50 -36 -20 -20 -37
-33 -37 -29 0 5 -9 0 -20 -10 -11 -10 -20 -15 -20 -11 0 5 -16 -1 -36 -13 -19
-12 -41 -21 -48 -21 -7 0 -24 -8 -37 -19 -33 -25 -49 -16 -49 26 0 86 -79 307
-140 393 -12 17 -19 30 -16 30 3 0 -2 8 -11 19 -10 10 -33 37 -52 60 -59 72
-167 171 -186 171 -3 0 -21 11 -39 25 -18 14 -38 25 -44 25 -6 0 -12 4 -14 8
-3 7 -83 65 -136 97 -9 6 -27 20 -41 32 -25 22 -25 23 -6 36 10 8 27 12 37 9
10 -2 18 1 18 7 0 16 50 37 94 40 22 1 44 5 50 9 13 8 29 10 106 16 30 2 55 5
55 6 0 1 23 3 50 4 51 3 91 12 205 48 67 22 165 80 153 91 -3 4 5 7 19 7 17 0
48 22 101 72 43 39 77 77 77 84 0 7 9 16 21 19 11 4 18 9 16 12 -3 2 2 13 11
23 18 20 65 74 112 130 16 19 33 43 36 53 3 11 37 51 75 90 38 39 69 74 69 78
0 7 52 33 63 31 4 -1 7 3 7 8 0 18 69 11 79 -7z m-1631 -914 c2 -5 8 -9 12 -9
11 0 296 -192 334 -225 15 -14 30 -25 32 -25 2 0 18 -12 36 -27 28 -25 55 -53
126 -130 47 -51 126 -197 137 -253 2 -8 4 -15 5 -15 2 0 5 -13 13 -50 74 -329
-89 -620 -371 -662 -110 -17 -227 7 -294 59 -17 12 -16 15 10 43 31 35 71 117
78 160 8 58 5 155 -6 175 -6 11 -8 20 -6 20 6 0 -15 61 -42 120 -11 25 -22 54
-24 65 -3 16 -11 19 -44 18 -58 -2 -98 -25 -135 -80 -105 -153 -137 -299 -92
-428 13 -38 26 -78 29 -87 11 -32 -111 -51 -222 -34 -135 20 -255 104 -312
218 -67 135 -74 365 -18 527 9 22 12 41 8 41 -4 0 -2 4 4 8 5 4 20 31 33 60
46 110 154 244 258 320 17 13 89 66 160 118 70 52 134 102 141 111 6 9 12 14
12 10 0 -4 9 2 20 13 20 20 20 20 67 -16 27 -20 50 -40 51 -45z m-2273 -495
c14 -15 25 -23 25 -19 0 4 7 2 15 -5 8 -7 15 -9 15 -5 0 4 8 -3 18 -14 9 -12
24 -23 32 -24 25 -4 110 -48 110 -58 0 -4 7 -6 15 -3 8 4 15 2 15 -3 0 -5 20
-20 45 -32 25 -12 45 -27 45 -32 0 -6 4 -8 9 -5 5 3 11 0 14 -8 3 -7 19 -16
35 -19 16 -3 43 -17 60 -31 16 -15 35 -26 41 -26 18 0 81 -33 81 -43 0 -5 6
-7 13 -4 7 3 24 -4 38 -14 13 -10 32 -19 42 -19 9 0 17 -4 17 -8 0 -4 16 -14
35 -21 19 -7 35 -17 35 -22 0 -5 9 -9 20 -9 11 0 20 -5 20 -12 0 -6 3 -8 6 -5
4 3 16 1 28 -5 11 -7 26 -13 31 -13 6 -1 9 -6 8 -12 -1 -6 14 -14 35 -18 20
-4 43 -11 50 -17 6 -6 12 -7 12 -2 0 5 4 4 8 -2 4 -6 41 -24 82 -39 41 -15
118 -43 170 -63 52 -19 104 -35 115 -37 12 -1 30 -22 50 -62 17 -33 38 -68 48
-77 9 -9 22 -25 29 -35 20 -28 137 -100 174 -107 19 -3 34 -10 34 -15 0 -5 3
-8 8 -7 4 1 27 -2 52 -7 25 -5 48 -8 53 -7 4 1 7 -8 7 -20 0 -26 35 -88 49
-88 5 0 20 -17 32 -37 13 -21 26 -40 30 -43 3 -3 5 -13 3 -23 -1 -9 7 -22 17
-28 11 -5 24 -20 30 -32 6 -12 21 -42 34 -67 12 -25 19 -49 15 -53 -7 -8 -24
5 -125 99 -67 61 -210 151 -294 183 -166 64 -410 74 -606 25 -33 -9 -69 -18
-80 -20 -11 -3 -27 -7 -35 -9 -8 -2 -15 -4 -15 -5 0 -1 -7 -3 -15 -5 -30 -6
-196 -73 -235 -95 -81 -45 -158 -115 -196 -177 -12 -21 -26 -40 -31 -43 -4 -3
-9 -15 -11 -25 -2 -11 -9 -33 -16 -49 -11 -27 -12 -28 -36 -12 -38 25 -105 96
-105 112 0 8 -7 14 -15 14 -14 0 -20 12 -16 33 1 5 -2 6 -7 3 -10 -6 -31 17
-69 76 -15 24 -34 49 -42 57 -7 8 -22 33 -32 55 -10 23 -23 48 -28 56 -16 24
-58 122 -71 165 -7 22 -19 52 -26 66 -8 15 -16 37 -18 50 -3 13 -5 26 -6 29
-2 3 -2 8 -2 11 1 3 -5 29 -13 57 -7 29 -11 52 -9 52 3 0 0 9 -6 20 -35 66
-16 427 29 543 6 15 10 31 9 35 -4 18 27 62 44 62 10 0 18 5 18 10 0 19 31 10
55 -16z m4522 -63 c5 -40 16 -81 23 -81 4 0 7 -12 8 -27 0 -16 5 -48 11 -73
23 -104 32 -191 31 -314 0 -134 -3 -161 -22 -231 -6 -22 -12 -47 -13 -55 -3
-27 -58 -160 -67 -160 -4 0 -8 -7 -8 -15 0 -14 -32 -81 -63 -130 -28 -46 -144
-193 -178 -225 -104 -100 -198 -180 -215 -180 -6 0 -23 -11 -38 -25 -15 -14
-33 -25 -40 -25 -8 0 -16 -7 -20 -15 -3 -8 -9 -15 -13 -14 -20 3 -34 -2 -28
-11 3 -5 -1 -10 -9 -10 -20 0 -20 22 -2 58 7 15 14 52 13 82 0 54 -32 170 -47
170 -4 0 -11 11 -14 25 -7 29 -176 201 -176 179 0 -4 -8 0 -17 8 -25 21 -83
48 -103 48 -9 0 -21 5 -26 10 -6 6 -24 13 -40 15 -16 3 -49 9 -74 13 -80 13
-268 2 -405 -24 -16 -3 -41 -7 -55 -9 -14 -2 -34 -6 -45 -8 -11 -3 -42 -10
-70 -17 -27 -6 -55 -16 -62 -22 -7 -6 -13 -7 -13 -3 0 4 -6 2 -13 -4 -8 -6
-16 -9 -19 -6 -6 7 -146 -47 -210 -81 -14 -8 -31 -14 -37 -14 -16 0 -14 26 4
43 8 8 12 17 9 19 -2 3 5 13 16 23 11 10 20 22 20 27 0 5 8 18 18 29 11 10 25
32 33 47 8 15 22 36 32 47 19 21 136 67 149 59 4 -3 8 -1 8 5 0 5 14 12 30 16
17 4 30 11 30 17 0 6 3 9 6 5 3 -3 27 7 53 23 87 54 192 167 206 222 12 47 34
58 190 103 33 10 74 19 90 20 17 1 39 5 50 8 105 28 139 35 218 44 26 3 47 9
47 13 0 3 6 7 13 8 6 1 23 3 37 5 14 1 30 5 35 8 6 4 28 10 50 13 22 4 68 19
103 33 35 14 69 26 75 27 7 1 31 12 55 24 23 12 42 20 42 17 0 -5 83 54 110
79 20 18 63 41 73 38 4 -1 7 3 7 8 0 12 144 150 172 166 26 14 73 -2 75 -25z
m-2283 -532 c1 -63 -3 -101 -11 -111 -7 -8 -10 -18 -6 -21 3 -4 1 -7 -6 -7
-47 0 -57 219 -13 295 15 24 35 -66 36 -156z m78 -393 c39 -8 75 -13 79 -10 4
2 14 1 23 -2 14 -5 14 -8 -2 -29 -9 -13 -20 -21 -24 -18 -5 2 -8 -5 -8 -16 0
-11 -6 -24 -14 -28 -7 -4 -21 -24 -31 -43 -10 -19 -21 -37 -25 -40 -4 -3 -17
-25 -29 -50 -44 -89 -53 -101 -69 -98 -15 3 -93 123 -89 137 1 4 -8 17 -20 31
-13 13 -23 30 -23 37 0 7 -9 21 -19 30 -11 9 -18 20 -16 24 3 4 -6 18 -20 30
-13 13 -25 29 -25 36 0 6 -5 13 -12 15 -20 7 2 28 30 29 15 0 47 8 72 19 l45
18 52 -29 c29 -15 85 -35 125 -43z m-977 -140 c11 -2 27 -6 35 -9 8 -3 29 -8
45 -12 33 -7 197 -75 205 -85 3 -3 25 -18 50 -32 62 -36 123 -88 268 -227 26
-24 78 -71 117 -104 38 -33 71 -64 73 -69 3 -6 -24 -21 -58 -33 -3 -1 -16 -6
-30 -12 -14 -6 -45 -19 -70 -28 -25 -9 -54 -21 -65 -26 -26 -11 -236 -81 -242
-80 -2 0 -21 -6 -43 -14 -22 -8 -40 -12 -40 -9 0 3 -6 2 -12 -3 -14 -8 -17 -9
-63 -18 -16 -3 -37 -8 -45 -11 -8 -3 -28 -8 -45 -11 -16 -2 -48 -9 -70 -15
-22 -6 -58 -12 -80 -14 -22 -2 -69 -7 -105 -12 -81 -12 -299 -12 -305 -1 -3 4
-12 6 -19 3 -17 -6 -176 45 -176 57 0 5 -4 8 -9 6 -15 -4 -89 62 -119 106
-106 153 -83 341 57 468 41 39 157 108 191 115 3 0 21 8 41 17 19 8 48 19 65
22 16 4 36 9 44 12 22 9 39 12 95 19 28 3 52 8 54 10 4 4 225 -5 256 -10z
m2085 -36 c132 -47 246 -143 298 -251 25 -51 29 -72 27 -128 -2 -74 -29 -139
-70 -168 -14 -10 -35 -26 -47 -36 -11 -9 -28 -17 -38 -17 -9 0 -20 -4 -25 -9
-15 -14 -104 -32 -167 -34 -32 -1 -58 -5 -58 -8 0 -6 -232 -3 -320 5 -30 2
-91 10 -135 16 -44 7 -93 14 -110 15 -16 2 -39 5 -50 8 -17 4 -100 18 -130 22
-5 1 -17 4 -25 7 -8 3 -35 11 -60 18 -25 6 -58 18 -75 25 -16 7 -38 15 -47 19
-30 9 -21 22 49 67 37 24 82 58 100 74 30 27 32 33 20 49 -15 21 -62 28 -91
13 -17 -8 -92 -62 -123 -88 -7 -5 -13 -7 -13 -3 0 3 -6 1 -13 -5 -28 -23 -27
6 4 84 4 11 10 31 13 45 9 41 16 45 136 105 215 106 313 142 429 160 14 3 35
6 46 9 17 3 59 9 147 20 10 1 19 4 22 7 2 2 58 4 123 3 96 -1 130 -5 183 -24z
m-1035 -636 c26 -9 45 -14 71 -19 12 -1 30 -7 40 -13 11 -5 35 -13 54 -16 19
-3 46 -8 60 -11 14 -3 38 -8 54 -10 16 -3 34 -9 40 -15 6 -6 -40 -8 -145 -4
-153 5 -200 6 -221 1 -12 -2 -31 80 -23 100 3 9 11 10 27 4 13 -5 32 -13 43
-17z m-301 -51 c-1 -32 -2 -61 -3 -65 -1 -11 -69 -9 -121 3 -25 6 -56 12 -69
13 -48 2 -31 24 39 46 38 12 70 26 70 30 0 3 6 7 13 8 24 2 47 8 53 15 16 16
20 4 18 -50z"/>
</g>
</svg>
